<svg xmlns="http://www.w3.org/2000/svg" xmlns:xlink="http://www.w3.org/1999/xlink" width="1363" height="768" viewBox="0 0 1363 768">
    <defs>
        <path id="a" d="M0 .223h2257.788V2390H0z"/>
    </defs>
    <g fill="none" fill-rule="evenodd" opacity=".202">
        <path fill="#C4C9CD" d="M237.684-939.902c-442.9 0-803.224 381.388-803.224 850.18 0 468.79 360.324 850.178 803.224 850.178 442.9 0 803.223-381.389 803.223-850.178 0-468.792-360.323-850.18-803.223-850.18m0 1726.271c-111.736 0-220.133-23.165-322.185-68.852-98.564-44.127-187.08-107.295-263.093-187.75-76.01-80.454-135.69-174.145-177.377-278.471-43.165-108.018-65.051-222.753-65.051-341.018 0-118.268 21.886-233.002 65.05-341.02 41.689-104.326 101.368-198.017 177.378-278.472C-271.582-789.67-183.065-852.836-84.5-896.963c102.052-45.687 210.45-68.852 322.185-68.852 111.736 0 220.131 23.165 322.185 68.852 98.564 44.127 187.08 107.293 263.091 187.749 76.012 80.455 135.69 174.146 177.38 278.472 43.163 108.018 65.049 222.752 65.049 341.02 0 118.265-21.886 233-65.05 341.018-41.69 104.326-101.367 198.017-177.379 278.47-76.012 80.456-164.527 143.624-263.091 187.75-102.054 45.688-210.45 68.853-322.185 68.853"/>
        <path fill="#C4C9CD" d="M237.342-884.96c-414.466 0-751.657 356.905-751.657 795.6 0 438.692 337.19 795.596 751.657 795.596 414.464 0 751.657-356.904 751.657-795.597 0-438.694-337.193-795.599-751.657-795.599m0 1617.093c-104.771 0-206.414-21.722-302.107-64.563-92.42-41.375-175.422-100.606-246.695-176.047-71.275-75.44-127.235-163.293-166.326-261.118-40.474-101.286-60.996-208.87-60.996-319.766 0-110.895 20.522-218.481 60.996-319.767 39.091-97.825 95.05-185.678 166.326-261.118 71.273-75.44 154.274-134.67 246.695-176.047 95.693-42.841 197.336-64.563 302.107-64.563 104.769 0 206.413 21.722 302.107 64.563 92.42 41.376 175.42 100.607 246.694 176.047 71.275 75.44 127.234 163.293 166.326 261.118 40.474 101.286 60.996 208.872 60.996 319.767 0 110.896-20.522 218.48-60.996 319.766-39.092 97.825-95.05 185.678-166.326 261.118C714.87 566.964 631.87 626.195 539.45 667.57c-95.694 42.841-197.338 64.563-302.107 64.563"/>
        <path fill="#C4C9CD" d="M237.683-994.15c-470.782 0-853.792 405.4-853.792 903.705 0 498.303 383.01 903.702 853.792 903.702 470.784 0 853.792-405.399 853.792-903.702 0-498.304-383.008-903.705-853.792-903.705m0 1833.309c-118.559 0-233.579-24.58-341.863-73.057-104.584-46.823-198.508-113.849-279.162-199.217-80.655-85.37-143.979-184.785-188.214-295.482-45.8-114.615-69.024-236.359-69.024-361.848 0-125.49 23.225-247.234 69.024-361.849 44.235-110.7 107.559-210.114 188.214-295.482 80.654-85.37 174.578-152.396 279.162-199.217 108.284-48.478 223.304-73.058 341.863-73.058s233.579 24.58 341.862 73.058c104.586 46.821 198.51 113.847 279.162 199.217 80.656 85.368 143.98 184.782 188.216 295.482 45.799 114.615 69.023 236.359 69.023 361.849 0 125.49-23.224 247.233-69.023 361.848-44.236 110.697-107.56 210.113-188.216 295.482-80.653 85.368-174.576 152.394-279.162 199.217-108.283 48.477-223.303 73.057-341.862 73.057"/>
        <path fill="#C4C9CD" d="M237-1046.206c-498.654 0-904.34 429.402-904.34 957.207 0 527.805 405.686 957.206 904.34 957.206 498.653 0 904.34-429.401 904.34-957.206 0-527.805-405.687-957.207-904.34-957.207m0 1940.324c-125.385 0-247.024-25.994-361.543-77.263-110.604-49.516-209.934-120.401-295.232-210.686-85.297-90.281-152.267-195.42-199.05-312.49C-667.26 172.465-691.82 43.713-691.82-89c0-132.715 24.56-261.467 72.996-382.68 46.782-117.069 113.752-222.207 199.049-312.49 85.298-90.283 184.628-161.168 295.232-210.686 114.519-51.267 236.158-77.263 361.543-77.263 125.385 0 247.024 25.996 361.542 77.263 110.605 49.518 209.935 120.403 295.233 210.686 85.297 90.283 152.267 195.421 199.05 312.49 48.435 121.213 72.995 249.965 72.995 382.68 0 132.713-24.56 261.465-72.996 382.677-46.782 117.072-113.752 222.21-199.049 312.491-85.298 90.285-184.628 161.17-295.233 210.686C484.024 868.124 362.385 894.118 237 894.118"/>
        <path fill="#C4C9CD" d="M237-830.718c-386.397 0-700.753 332.734-700.753 741.717 0 408.987 314.356 741.72 700.752 741.72 386.397 0 700.754-332.733 700.754-741.72 0-408.983-314.357-741.717-700.754-741.717m0 1509.338c-97.9 0-192.877-20.297-282.295-60.33-86.36-38.661-163.918-94.008-230.517-164.5-66.598-70.493-118.889-152.585-155.416-243.995-37.82-94.644-56.996-195.172-56.996-298.796 0-103.622 19.177-204.152 56.996-298.796 36.527-91.41 88.818-173.5 155.416-243.993 66.6-70.492 144.158-125.839 230.517-164.5C44.122-836.324 139.1-856.62 237-856.62c97.899 0 192.877 20.297 282.294 60.33 86.36 38.661 163.919 94.008 230.518 164.5 66.6 70.493 118.89 152.584 155.416 243.993C943.048-293.153 962.225-192.623 962.225-89c0 103.622-19.177 204.152-56.998 298.796-36.527 91.41-88.816 173.502-155.416 243.995-66.6 70.492-144.157 125.839-230.518 164.5-89.417 40.033-184.395 60.33-282.294 60.33"/>
        <path fill="#C4C9CD" d="M239.39-777.212c-358.69 0-650.507 308.405-650.507 687.49 0 379.083 291.816 687.488 650.507 687.488S889.898 289.361 889.898-89.722c0-379.085-291.817-687.49-650.508-687.49m0 1400.873c-91.12 0-179.52-18.863-262.748-56.067-80.381-35.93-152.567-87.367-214.555-152.878-61.988-65.512-110.656-141.801-144.655-226.755-35.201-87.957-53.05-181.383-53.05-277.683 0-96.301 17.849-189.729 53.05-277.687 33.999-84.95 82.667-161.241 144.655-226.754 61.988-65.51 134.174-116.947 214.555-152.877 83.227-37.204 171.627-56.067 262.748-56.067 91.121 0 179.522 18.863 262.749 56.067 80.38 35.93 152.566 87.367 214.556 152.877 61.987 65.513 110.657 141.804 144.654 226.754C896.552-279.451 914.4-186.023 914.4-89.722c0 96.3-17.848 189.726-53.051 277.683-33.997 84.954-82.667 161.243-144.654 226.755-61.99 65.511-134.177 116.948-214.556 152.878-83.227 37.204-171.628 56.067-262.75 56.067"/>
        <path fill="#C4C9CD" d="M238.024-722.97c-330.076 0-598.614 284.236-598.614 633.61 0 349.373 268.538 633.607 598.614 633.607 330.078 0 598.615-284.234 598.615-633.608 0-349.373-268.537-633.61-598.615-633.61m0 1293.12c-84.11 0-165.711-17.44-242.536-51.834-74.197-33.216-140.832-80.768-198.05-141.333-57.22-60.563-102.144-131.092-133.528-209.63C-368.583 86.038-385.06-.332-385.06-89.36c0-89.028 16.477-175.398 48.97-256.714 31.384-78.537 76.309-149.067 133.527-209.63C-145.344-616.27-78.709-663.82-4.513-697.038c76.826-34.395 158.427-51.833 242.537-51.833 84.111 0 165.711 17.438 242.536 51.833 74.2 33.218 140.832 80.77 198.05 141.333 57.221 60.563 102.144 131.093 133.528 209.63C844.633-264.76 861.11-178.39 861.11-89.361c0 89.029-16.477 175.4-48.972 256.713-31.384 78.538-76.307 149.067-133.527 209.63-57.219 60.565-123.852 108.117-198.05 141.333-76.826 34.395-158.426 51.833-242.537 51.833"/>
        <path fill="#C4C9CD" d="M237.682-670.174c-302.006 0-547.708 260.065-547.708 579.728 0 319.663 245.702 579.727 547.708 579.727 302.009 0 547.71-260.064 547.71-579.727 0-319.663-245.701-579.728-547.71-579.728m0 1185.363c-77.239 0-152.175-16.015-222.724-47.599-68.137-30.506-129.327-74.172-181.872-129.787-52.545-55.616-93.8-120.385-122.619-192.505-29.84-74.673-44.97-153.99-44.97-235.744 0-81.754 15.13-161.071 44.97-235.745 28.82-72.121 70.074-136.888 122.62-192.505 52.544-55.614 113.734-99.282 181.87-129.787 70.55-31.585 145.486-47.599 222.725-47.599 77.24 0 152.176 16.014 222.725 47.6 68.138 30.504 129.328 74.172 181.873 129.786 52.543 55.617 93.798 120.384 122.619 192.505 29.84 74.674 44.97 153.99 44.97 235.745 0 81.754-15.13 161.07-44.97 235.744-28.821 72.12-70.076 136.889-122.619 192.505-52.545 55.615-113.735 99.281-181.873 129.787-70.55 31.584-145.486 47.6-222.725 47.6"/>
        <path fill="#C4C9CD" d="M237-615.223c-273.759 0-496.478 235.74-496.478 525.502 0 289.76 222.72 525.5 496.478 525.5 273.759 0 496.478-235.74 496.478-525.5 0-289.763-222.72-525.502-496.478-525.502m0 1076.9c-139.15 0-269.972-57.355-368.365-161.501-98.394-104.145-152.58-242.614-152.58-389.897 0-147.285 54.186-285.755 152.58-389.9C-32.972-583.767 97.85-641.124 237-641.124s269.972 57.357 368.365 161.501c98.394 104.146 152.58 242.616 152.58 389.9 0 147.284-54.186 285.753-152.58 389.898-98.393 104.146-229.215 161.5-368.365 161.5"/>
        <path fill="#C4C9CD" d="M238.709-561.016c-245.332 0-444.923 211.259-444.923 470.932 0 259.67 199.591 470.93 444.923 470.93 245.33 0 444.921-211.26 444.921-470.93 0-259.673-199.591-470.932-444.921-470.932m0 967.733c-125.372 0-243.24-51.676-331.89-145.51-88.65-93.832-137.474-218.592-137.474-351.29 0-132.702 48.823-257.461 137.473-351.294 88.652-93.834 206.519-145.51 331.89-145.51 125.373 0 243.238 51.676 331.89 145.51 88.65 93.833 137.473 218.592 137.473 351.293 0 132.7-48.823 257.459-137.473 351.291-88.652 93.834-206.517 145.51-331.89 145.51"/>
        <path fill="#C4C9CD" d="M239.05-508.178c-217.618 0-394.661 187.393-394.661 417.733 0 230.337 177.043 417.73 394.66 417.73 217.619 0 394.661-187.393 394.661-417.73 0-230.34-177.042-417.733-394.66-417.733m0 861.382c-111.96 0-217.217-46.146-296.383-129.94C-136.5 139.47-180.098 28.057-180.098-90.446c0-118.504 43.598-229.915 122.765-313.709C21.833-487.949 127.09-534.097 239.05-534.097c111.959 0 217.214 46.148 296.382 129.942 79.166 83.794 122.765 195.205 122.765 313.71 0 118.502-43.6 229.912-122.765 313.71-79.168 83.793-184.423 129.94-296.382 129.94"/>
        <path fill="#C4C9CD" d="M238.025-453.206c-189.544 0-343.75 163.22-343.75 363.844 0 200.625 154.206 363.845 343.75 363.845s343.749-163.22 343.749-363.845c0-200.624-154.205-363.844-343.75-363.844m0 753.62c-98.361 0-190.837-40.545-260.39-114.163C-91.92 112.632-130.224 14.75-130.224-89.362c0-104.113 38.304-201.994 107.858-275.614 69.553-73.618 162.027-114.162 260.39-114.162 98.364 0 190.839 40.544 260.391 114.162 69.554 73.619 107.859 171.501 107.859 275.614 0 104.112-38.305 201.994-107.859 275.613-69.552 73.618-162.028 114.164-260.39 114.164"/>
        <path fill="#C4C9CD" d="M238.023-399.703c-161.295 0-292.518 138.894-292.518 309.62 0 170.723 131.223 309.617 292.518 309.617 161.297 0 292.52-138.894 292.52-309.618 0-170.725-131.223-309.62-292.52-309.62m0 645.16c-174.798 0-317.006-150.523-317.006-335.54 0-185.018 142.208-335.54 317.006-335.54 174.8 0 317.01 150.522 317.01 335.54 0 185.017-142.21 335.54-317.01 335.54"/>
        <path fill="#C4C9CD" d="M239.732-346.182c-133.225 0-241.61 114.722-241.61 255.737 0 141.012 108.385 255.735 241.61 255.735 133.227 0 241.614-114.723 241.614-255.735 0-141.015-108.387-255.737-241.614-255.737m0 537.401C92.999 191.22-26.376 64.864-26.376-90.445c0-155.312 119.375-281.667 266.108-281.667 146.734 0 266.11 126.355 266.11 281.667 0 155.31-119.376 281.664-266.11 281.664"/>
        <path fill="#C4C9CD" d="M239.049-290.529C134.063-290.529 48.65-200.123 48.65-89c0 111.123 85.412 201.529 190.398 201.529 104.986 0 190.4-90.406 190.4-201.529 0-111.123-85.414-201.529-190.4-201.529m0 428.959C120.57 138.43 24.18 36.404 24.18-89c0-125.406 96.39-227.43 214.868-227.43 118.48 0 214.87 102.024 214.87 227.43 0 125.404-96.39 227.43-214.87 227.43"/>
        <path fill="#C4C9CD" d="M237-1099.724c-526.158 0-954.218 453.086-954.218 1010 0 556.917 428.06 1010.001 954.218 1010.001 526.158 0 954.218-453.084 954.218-1010 0-556.915-428.06-1010-954.218-1010m0 2045.908c-132.118 0-260.29-27.391-380.956-81.413-116.543-52.173-221.209-126.866-311.086-221.997-89.877-95.133-160.443-205.916-209.736-329.272-51.039-127.72-76.916-263.385-76.916-403.226s25.877-275.506 76.916-403.226c49.293-123.358 119.859-234.139 209.736-329.272 89.877-95.132 194.543-169.822 311.086-221.997 120.667-54.022 248.838-81.413 380.956-81.413 132.118 0 260.29 27.39 380.956 81.413 116.543 52.175 221.207 126.865 311.086 221.997 89.876 95.133 160.443 205.914 209.736 329.272 51.039 127.72 76.916 263.385 76.916 403.226s-25.877 275.505-76.916 403.226c-49.293 123.356-119.86 234.139-209.736 329.272-89.879 95.131-194.543 169.824-311.086 221.997C497.289 918.794 369.118 946.185 237 946.185"/>
        <path fill="#C4C9CD" d="M237.342-1152.508c-553.845 0-1004.43 476.926-1004.43 1063.146S-316.502 973.785 237.343 973.785c553.844 0 1004.429-476.926 1004.429-1063.147 0-586.22-450.585-1063.146-1004.43-1063.146m0 2152.205c-138.896 0-273.644-28.797-400.501-85.59-122.525-54.852-232.56-133.375-327.049-233.388-94.488-100.013-168.675-216.48-220.498-346.167C-764.363 200.28-791.57 57.656-791.57-89.362c0-147.017 27.206-289.641 80.862-423.915 51.823-129.685 126.01-246.154 220.498-346.165 94.49-100.014 204.524-178.537 327.049-233.39 126.857-56.793 261.605-85.589 400.502-85.589 138.896 0 273.644 28.796 400.501 85.589 122.523 54.853 232.558 133.376 327.049 233.39 94.488 100.011 168.675 216.48 220.498 346.165 53.656 134.274 80.862 276.898 80.862 423.915 0 147.018-27.206 289.642-80.862 423.914-51.823 129.687-126.01 246.154-220.498 346.167-94.491 100.013-204.526 178.536-327.049 233.388-126.857 56.793-261.605 85.59-400.501 85.59"/>
        <path fill="#C4C9CD" d="M237.683-1203.864c-581.53 0-1054.642 500.452-1054.642 1115.588S-343.848 1027.31 237.683 1027.31c581.531 0 1054.642-500.45 1054.642-1115.586S819.215-1203.864 237.683-1203.864m0 2257.074c-145.675 0-287-30.182-420.05-89.709-128.502-57.492-243.907-139.796-343.009-244.624-99.1-104.828-176.907-226.903-231.258-362.831-56.275-140.738-84.809-290.23-84.809-444.322 0-154.096 28.534-303.586 84.809-444.323 54.351-135.929 132.158-258.004 231.258-362.831 99.102-104.83 214.507-187.132 343.01-244.625 133.048-59.527 274.374-89.709 420.05-89.709 145.675 0 286.998 30.182 420.047 89.71 128.502 57.492 243.907 139.795 343.01 244.624 99.1 104.827 176.908 226.902 231.26 362.83 56.276 140.738 84.808 290.228 84.808 444.324 0 154.092-28.532 303.584-84.808 444.322-54.352 135.928-132.16 258.003-231.26 362.83-99.103 104.83-214.508 187.133-343.01 244.625-133.049 59.527-274.372 89.71-420.048 89.71"/>
        <g transform="translate(-892 -1284)">
            <mask id="b" fill="#fff">
                <use xlink:href="#a"/>
            </mask>
            <path fill="#C4C9CD" d="M1128.894 26.133C519.918 26.133 24.48 550.535 24.48 1195.111S519.92 2364.09 1128.894 2364.09c608.976 0 1104.415-524.402 1104.415-1168.978S1737.87 26.133 1128.894 26.133m0 2363.867c-152.394 0-300.236-31.596-439.42-93.906-134.43-60.181-255.157-146.337-358.83-256.068C226.973 1930.292 145.576 1802.51 88.72 1660.22 29.85 1512.9 0 1356.414 0 1195.111c0-161.302 29.85-317.787 88.72-465.109 56.857-142.287 138.254-270.072 241.925-379.804 103.673-109.732 224.4-195.886 358.83-256.069C828.657 31.817 976.5.223 1128.893.223s300.235 31.594 439.42 93.906c134.428 60.183 255.157 146.337 358.829 256.07 103.671 109.731 185.067 237.516 241.926 379.803 58.87 147.322 88.72 303.807 88.72 465.11 0 161.302-29.85 317.787-88.72 465.108-56.859 142.29-138.255 270.072-241.926 379.806-103.672 109.73-224.4 195.887-358.83 256.068-139.184 62.31-287.025 93.906-439.419 93.906" mask="url(#b)"/>
        </g>
    </g>
</svg>
