<?xml version="1.0" encoding="UTF-8"?>
<svg width="164px" height="156px" viewBox="0 0 164 156" version="1.1" xmlns="http://www.w3.org/2000/svg" xmlns:xlink="http://www.w3.org/1999/xlink">
    <!-- Generator: sketchtool 49 (51002) - http://www.bohemiancoding.com/sketch -->
    <title>CB4ECEC4-23AA-437E-A658-074B43647753</title>
    <desc>Created with sketchtool.</desc>
    <defs></defs>
    <g id="Участник" stroke="none" stroke-width="1" fill="none" fill-rule="evenodd">
        <g id="Artboard" transform="translate(-1232.000000, -951.000000)" fill="#C4C9CD">
            <g id="ic/walk-of-fame/disabled" transform="translate(1232.000000, 951.000000)">
                <g id="walk-of-fame">
                    <path d="M163.862055,59.3820086 C163.531492,58.3656742 162.65127,57.6250101 161.592313,57.4715046 L108.337297,49.7453803 L84.5213419,1.56511663 C84.0475981,0.606986382 83.070001,0 81.999513,0 C80.929025,0 79.9517483,0.606666579 79.4776842,1.56511663 L55.6614084,49.7453803 L2.40735357,57.4715046 C1.34807656,57.6250101 0.468175148,58.3656742 0.137611531,59.3820086 C-0.192952085,60.3983431 0.0828379086,61.5141363 0.848707683,62.2599172 L39.3843535,99.762913 L30.2871274,152.717838 C30.1064706,153.771269 30.5398548,154.835894 31.4059828,155.463668 C31.8960626,155.819289 32.4761504,155.999977 33.0591212,155.999977 C33.5062789,155.999977 33.9559992,155.893163 34.3672818,155.677616 L81.9998333,130.675405 L129.632385,155.677616 C130.579872,156.17459 131.728197,156.092081 132.593684,155.463987 C133.459812,154.835894 133.893196,153.771589 133.712539,152.718158 L124.615313,99.762913 L163.150959,62.2599172 C163.917149,61.5141363 164.193259,60.3983431 163.862055,59.3820086 Z M119.630914,96.7727535 C118.968185,97.4177965 118.665809,98.3471445 118.822122,99.2579438 L127.206009,148.061184 L83.307994,125.019367 C82.4883116,124.589551 81.5100739,124.589551 80.6910321,125.019367 L36.7933369,148.060864 L45.1769043,99.257624 C45.3332173,98.3468247 45.0311616,97.4174767 44.3681125,96.7724337 L8.85430504,62.2097081 L57.933713,55.0892909 C58.8494895,54.9562528 59.641625,54.3822062 60.0509858,53.5532764 L81.9998333,9.15084739 L103.948681,53.5532764 C104.358042,54.3815666 105.149857,54.9562528 106.065954,55.0892909 L155.145362,62.2097081 L119.630914,96.7727535 Z" id="Shape" fill-rule="nonzero"></path>
                    <path d="M81.5001604,56 C64.682243,56 51,69.682243 51,86.5001604 C51,103.318078 64.682243,117 81.5001604,117 C98.3180778,117 112,103.317757 112,86.5001604 C112,69.6825638 98.3174362,56 81.5001604,56 Z M81.5001604,111.3674 C67.7880814,111.3674 56.6326004,100.211919 56.6326004,86.5001604 C56.6326004,72.7884022 67.7880814,61.6326004 81.5001604,61.6326004 C95.2122395,61.6326004 106.367079,72.7880814 106.367079,86.5001604 C106.367079,100.212239 95.2115978,111.3674 81.5001604,111.3674 Z" id="Shape" fill-rule="nonzero"></path>
                    <path d="M94.1566786,74 L70.8433214,74 C69.2731628,74 68,75.3433193 68,77 C68,78.6566807 69.272839,80 70.8433214,80 L94.1566786,80 C95.7268372,80 97,78.6566807 97,77 C97,75.3429776 95.7268372,74 94.1566786,74 Z" id="Shape" fill-rule="nonzero"></path>
                    <path d="M98.1862179,83 L65.8137821,83 C64.2599359,83 63,84.3433193 63,86 C63,87.6566807 64.2599359,89 65.8137821,89 L98.1862179,89 C99.7400641,89 101,87.6566807 101,86 C100.999679,84.3433193 99.7400641,83 98.1862179,83 Z" id="Shape" fill-rule="nonzero"></path>
                    <path d="M94.1566786,92 L70.8433214,92 C69.2731628,92 68,93.3433193 68,95 C68,96.6566807 69.272839,98 70.8433214,98 L94.1566786,98 C95.7268372,98 97,96.6566807 97,95 C97,93.3433193 95.7268372,92 94.1566786,92 Z" id="Shape" fill-rule="nonzero"></path>
                </g>
            </g>
        </g>
    </g>
</svg>