<svg xmlns="http://www.w3.org/2000/svg" xmlns:xlink="http://www.w3.org/1999/xlink" width="604" height="303" viewBox="0 0 604 303">
    <defs>
        <path id="a" d="M486 83.699A69.112 69.112 0 0 0 447.444 72C409.152 72 378 103.096 378 141.32c0 7.94 1.364 15.568 3.837 22.68a80.53 80.53 0 0 1-.103-4.099c0-44.076 35.925-79.937 80.082-79.937 8.425 0 16.549 1.314 24.184 3.735z"/>
        <path id="b" d="M142.535 294.97v.436l-4.47-.35-3.727.076v-.375l-2.382-.176c-3.12-.218-6.105-.517-8.965-.892-2.582-.336-5.17-.747-7.741-1.22a151.624 151.624 0 0 1-11.388-2.548 152.588 152.588 0 0 1-14.695-4.685A145.76 145.76 0 0 1 86 284a143.368 143.368 0 0 0 21.698 10.313 141.8 141.8 0 0 0 24.266 6.724c2.388.436 5.008.816 7.435 1.132 2.77.361 5.869.632 8.601.831v-8.125c-2.732.02-2.093.047-2.732.058l-2.733.037z"/>
        <path id="c" d="M220 110.418A80.253 80.253 0 0 1 227.174 121L282 90.793A141.702 141.702 0 0 0 275.203 80l-2.563 1.412L220 110.418z"/>
        <path id="d" d="M138.828 72.09c-35.66 1.808-63.922 30-65.735 65.574a68.92 68.92 0 0 0 0 7.126A69.082 69.082 0 0 0 76.846 164c-.003-.037-.008-.074-.008-.114a77.778 77.778 0 0 1-.107-4.101c0-1.376.035-2.744.107-4.104 2.078-40.76 34.948-73.551 75.813-75.624A79.902 79.902 0 0 1 181 83.72C169.754 76.214 156.373 72 142.399 72c-1.188 0-2.39.032-3.572.09"/>
        <path id="e" d="M222.357 270.972c-1.016.66-1.904 1.308-2.938 1.947-8.322 5.136-17.09 9.46-26.2 12.85a146.938 146.938 0 0 1-14.086 4.463 146.043 146.043 0 0 1-10.934 2.43c-2.473.45-5.605.839-8.08 1.158-.825.107-.494.192-3.119.288V303c5.25-.09 10.94-.45 15.98-1.103 2.33-.3 4.956-.663 7.25-1.079 1.148-.208 2.444-.431 3.581-.668a135.05 135.05 0 0 0 6.839-1.588 137.679 137.679 0 0 0 13.168-4.148c8.563-3.188 16.483-7.203 24.172-11.95.05-.027-.11-.059-.11-.088V267c-2.625 1.37-3.565 2.696-5.523 3.972"/>
        <path id="f" d="M302.034 283.992v10.793h-47.689v8.06h55.637V210.61c-2.65-7.574-5.299-14.444-7.948-20.177v93.558z"/>
        <path id="g" d="M447.84 61.72c-44.168 0-80.103 35.966-80.103 80.174 0 44.207 35.935 80.174 80.103 80.174 44.167 0 80.1-35.967 80.1-80.174 0-44.208-35.933-80.175-80.1-80.175m0 222.02c-78.145 0-141.718-63.633-141.718-141.845C306.122 63.679 369.695.046 447.84.046c78.142 0 141.717 63.633 141.717 141.848 0 78.212-63.575 141.844-141.717 141.844"/>
        <path id="h" d="M132.577 221.088c-38.403-4.708-68.53-36.372-70.522-75.307a80.684 80.684 0 0 1 0-8.227c2.094-40.87 35.173-73.75 76.296-75.829 1.37-.069 2.75-.103 4.138-.103 29.16 0 56.125 15.74 70.372 41.075l54.079-30.038C241.757 27.87 194.07.047 142.489.047c-6.138 0-12.188.388-18.123 1.14a139.988 139.988 0 0 0-10.559 1.744c-2.316.47-4.613 1-6.887 1.582a142.37 142.37 0 0 0-13.372 4.141A142.49 142.49 0 0 0 65.743 22.39C28.161 46.361 2.59 87.388.185 134.39a142.823 142.823 0 0 0 0 14.554c2.405 47.003 27.976 88.032 65.558 112.001a142.3 142.3 0 0 0 41.177 17.876 143.749 143.749 0 0 0 10.38 2.25c2.335.417 4.691.773 7.066 1.076 2.712.346 5.45.601 8.211.792v-61.85z"/>
        <path id="i" d="M284.39 135H158.588v50.487h51.56c-13.592 21.113-36.843 35.488-63.492 36.84-.55.025-1.104.022-1.656.04v61.593a142.31 142.31 0 0 0 15.596-1.1 138.467 138.467 0 0 0 10.527-1.741 141.15 141.15 0 0 0 20.201-5.725 141.755 141.755 0 0 0 27.719-13.735 143.053 143.053 0 0 0 22.31-17.641V284H292V135h-7.61z"/>
    </defs>
    <g fill="none" fill-rule="evenodd">
        <path fill="#C4C9CD" fill-opacity=".403" d="M599.163 124.254c.701 5.91 1.07 11.917 1.07 18.01 0 84.195-68.771 152.695-153.306 152.695-19.668 0-38.477-3.711-55.769-10.461 20.744 11.74 44.714 18.459 70.23 18.459 78.634 0 142.604-63.715 142.604-142.03 0-12.677-1.684-24.967-4.83-36.673"/>
        <g>
            <use fill="#FFF" xlink:href="#a"/>
            <use fill="#C4C9CD" fill-opacity=".503" xlink:href="#a"/>
        </g>
        <g>
            <use fill="#FFF" xlink:href="#b"/>
            <use fill="#C4C9CD" fill-opacity=".503" xlink:href="#b"/>
        </g>
        <g>
            <use fill="#FFF" xlink:href="#c"/>
            <use fill="#C4C9CD" fill-opacity=".503" xlink:href="#c"/>
        </g>
        <g>
            <use fill="#FFF" xlink:href="#d"/>
            <use fill="#C4C9CD" fill-opacity=".503" xlink:href="#d"/>
        </g>
        <g>
            <use fill="#FFF" xlink:href="#e"/>
            <use fill="#C4C9CD" fill-opacity=".503" xlink:href="#e"/>
        </g>
        <g>
            <use fill="#FFF" xlink:href="#f"/>
            <use fill="#C4C9CD" fill-opacity=".503" xlink:href="#f"/>
        </g>
        <g>
            <use fill="#FFF" xlink:href="#g"/>
            <use fill="#C4C9CD" fill-opacity=".503" xlink:href="#g"/>
        </g>
        <g>
            <use fill="#FFF" xlink:href="#h"/>
            <use fill="#C4C9CD" fill-opacity=".503" xlink:href="#h"/>
        </g>
        <g>
            <use fill="#FFF" xlink:href="#i"/>
            <use fill="#C4C9CD" fill-opacity=".503" xlink:href="#i"/>
        </g>
    </g>
</svg>
