<?xml version="1.0" encoding="UTF-8"?>
<svg width="100px" height="164px" viewBox="0 0 100 164" version="1.1" xmlns="http://www.w3.org/2000/svg" xmlns:xlink="http://www.w3.org/1999/xlink">
    <!-- Generator: sketchtool 49 (51002) - http://www.bohemiancoding.com/sketch -->
    <title>616636C7-4B7A-4A75-BC7E-959150495B8A</title>
    <desc>Created with sketchtool.</desc>
    <defs></defs>
    <g id="Symbols" stroke="none" stroke-width="1" fill="none" fill-rule="evenodd">
        <g id="ic/idea" fill="#004C97" fill-rule="nonzero">
            <g id="idea-(1)">
                <circle id="Oval" cx="50.5" cy="75.5" r="3.5"></circle>
                <polygon id="Shape" points="43 36 46.4998496 65 53.4998496 65 57 36"></polygon>
                <path d="M50.0001535,0 C22.5000537,0 0,22.8570538 0,50.7934875 C0,66.7571639 6.785711,81.2694552 18.571468,90.3397543 C24.9999233,95.05621 28.2143043,101.949587 28.5715601,111.019886 C26.4286394,112.833884 25.0002302,115.37373 25.0002302,118.276188 C25.0002302,120.45311 25.7144348,122.267107 26.7858951,123.718492 C25.7144348,125.169877 25.0002302,126.983875 25.0002302,129.160796 C25.0002302,131.337718 25.7144348,133.151715 26.7858951,134.6031 C25.7144348,136.054485 25.0002302,137.868483 25.0002302,140.045404 C25.0002302,145.124784 28.9288159,149.115704 33.9288619,149.115704 L36.7859872,149.115704 L39.6431125,157.460466 C40.0003683,158.911851 41.4287775,160 42.8574936,160 L57.1431202,160 C58.5718363,160 60.0002455,158.911539 60.3575013,157.460466 L63.2146266,149.115704 L66.0717519,149.115704 C71.071798,149.115704 75.0003837,145.124784 75.0003837,140.045404 C75.0003837,137.868483 74.2861791,136.054485 73.2147187,134.6031 C74.2861791,133.151715 75.0003837,131.337718 75.0003837,129.160796 C75.0003837,126.983875 74.2861791,125.169877 73.2147187,123.718492 C74.2861791,122.267107 75.0003837,120.45311 75.0003837,118.276188 C75.0003837,113.196808 71.071798,109.205889 66.0717519,109.205889 L50.0001535,109.205889 C47.8572327,109.205889 46.4288235,110.657274 46.4288235,112.833884 C46.4288235,115.010805 47.8575397,116.461879 50.0001535,116.461879 L66.0717519,116.461879 C67.1432123,116.461879 67.8574169,117.187415 67.8574169,118.275876 C67.8574169,119.364337 67.1429054,119.727573 66.071445,119.727573 C63.9285243,119.727573 62.5001151,121.178958 62.5001151,123.355568 C62.5001151,125.53249 63.9288312,126.983563 66.071445,126.983563 C67.1429054,126.983563 67.85711,127.709099 67.85711,128.79756 C67.85711,129.886021 67.1429054,130.611558 66.071445,130.611558 L49.9998465,130.611558 C47.8569258,130.611558 46.4285166,132.062943 46.4285166,134.239553 C46.4285166,136.416162 47.8572327,137.867547 49.9998465,137.867547 L66.071445,137.867547 C67.1429054,137.867547 67.85711,138.593084 67.85711,139.681545 C67.85711,140.770006 67.1429054,141.495542 66.071445,141.495542 L33.928555,141.495542 C32.8570946,141.495542 32.14289,140.770006 32.14289,139.681545 C32.14289,138.593084 32.8570946,137.867547 33.928555,137.867547 C36.0714757,137.867547 37.4998849,136.416162 37.4998849,134.239553 C37.4998849,132.062943 36.0711688,130.611558 33.928555,130.611558 C32.8570946,130.611558 32.14289,129.886021 32.14289,128.79756 C32.14289,127.709099 32.8570946,126.983563 33.928555,126.983563 L53.5714834,126.983563 C55.7144041,126.983563 57.1428133,125.532178 57.1428133,123.355568 C57.1428133,121.178646 55.7140972,119.727573 53.5714834,119.727573 L33.928555,119.727573 C32.8570946,119.727573 32.14289,119.002036 32.14289,117.913576 C32.14289,116.825115 32.8570946,116.099578 33.928555,116.099578 C36.0714757,116.099578 37.4998849,114.648193 37.4998849,112.471583 C37.4998849,111.020198 36.7856803,109.932049 35.7142199,109.206201 C35.0000153,98.3219043 30.7141739,89.9771419 22.8570026,84.1722253 C12.8569105,76.5533113 7.14265984,64.2176298 7.14265984,50.7934875 C7.14265984,26.8479729 26.4283325,7.25630158 49.9998465,7.25630158 C73.5713606,7.25630158 92.8570332,26.8479729 92.8570332,50.7934875 C92.8570332,64.2176298 87.1427826,76.9159237 77.1426905,84.1722253 C71.4284399,88.5260686 67.8568031,93.968061 65.7141893,100.498826 C64.9999847,102.312823 66.071445,104.489745 68.2140588,104.852669 C69.9997238,105.578206 72.1426445,104.489745 72.4999003,102.312823 C73.9286164,97.2334434 76.7857417,92.8796001 81.428532,89.6145294 C93.214289,81.269767 100,66.3945515 100,50.7937993 C100.000307,22.8570538 77.5002532,0 50.0001535,0 Z M55.7144041,148.752468 L54.6429437,152.380462 L45.3570563,152.380462 L44.2855959,148.752468 L55.7144041,148.752468 Z" id="Shape"></path>
            </g>
        </g>
    </g>
</svg>