<?xml version="1.0" encoding="UTF-8"?>
<svg width="164px" height="164px" viewBox="0 0 164 164" version="1.1" xmlns="http://www.w3.org/2000/svg" xmlns:xlink="http://www.w3.org/1999/xlink">
    <!-- Generator: sketchtool 49 (51002) - http://www.bohemiancoding.com/sketch -->
    <title>6E530213-CF43-4236-A701-50650CA88DC7</title>
    <desc>Created with sketchtool.</desc>
    <defs></defs>
    <g id="Symbols" stroke="none" stroke-width="1" fill="none" fill-rule="evenodd">
        <g id="ic/video-player/normal">
            <g id="video-player" transform="translate(19.000000, 29.000000)" fill="#004C97" fill-rule="nonzero">
                <path d="M46.6566545,48.1605091 C47.1039273,48.4050182 47.5989091,48.5272727 48.0909091,48.5272727 C48.6485091,48.5272727 49.2031273,48.3692364 49.6921455,48.0621091 L82.4921455,27.1893818 C83.3509091,26.6407273 83.8727273,25.6925091 83.8727273,24.6727273 C83.8727273,23.6529455 83.3509091,22.7047273 82.4921455,22.1560727 L49.6921455,1.28334545 C48.7677818,0.701890909 47.6138182,0.663127273 46.6536727,1.18494545 C45.7024727,1.70974545 45.1090909,2.71163636 45.1090909,3.8 L45.1090909,45.5454545 C45.1090909,46.6338182 45.7024727,47.6357091 46.6566545,48.1605091 Z M51.0727273,9.22989091 L75.3387636,24.6727273 L51.0727273,40.1155636 L51.0727273,9.22989091 Z" id="Shape"></path>
                <path d="M122.636364,102.2 L51.0727273,102.2 L51.0727273,96.2363636 C51.0727273,94.5874182 49.7398545,93.2545455 48.0909091,93.2545455 C46.4419636,93.2545455 45.1090909,94.5874182 45.1090909,96.2363636 L45.1090909,102.2 L33.1818182,102.2 C31.5328727,102.2 30.2,103.532873 30.2,105.181818 C30.2,106.830764 31.5328727,108.163636 33.1818182,108.163636 L45.1090909,108.163636 L45.1090909,114.127273 C45.1090909,115.776218 46.4419636,117.109091 48.0909091,117.109091 C49.7398545,117.109091 51.0727273,115.776218 51.0727273,114.127273 L51.0727273,108.163636 L122.636364,108.163636 C124.285309,108.163636 125.618182,106.830764 125.618182,105.181818 C125.618182,103.532873 124.285309,102.2 122.636364,102.2 Z" id="Shape"></path>
                <path d="M3.36363636,93.2545455 C1.71469091,93.2545455 0.381818182,94.5874182 0.381818182,96.2363636 L0.381818182,114.127273 C0.381818182,115.776218 1.71469091,117.109091 3.36363636,117.109091 C5.01258182,117.109091 6.34545455,115.776218 6.34545455,114.127273 L6.34545455,96.2363636 C6.34545455,94.5874182 5.01258182,93.2545455 3.36363636,93.2545455 Z" id="Shape"></path>
                <path d="M15.2909091,93.2545455 C13.6419636,93.2545455 12.3090909,94.5874182 12.3090909,96.2363636 L12.3090909,114.127273 C12.3090909,115.776218 13.6419636,117.109091 15.2909091,117.109091 C16.9398545,117.109091 18.2727273,115.776218 18.2727273,114.127273 L18.2727273,96.2363636 C18.2727273,94.5874182 16.9398545,93.2545455 15.2909091,93.2545455 Z" id="Shape"></path>
            </g>
            <rect id="Rectangle-6" stroke="#004C97" stroke-width="6" x="4" y="4" width="156" height="156" rx="2"></rect>
            <path d="M5.5,107.5 L159.512986,107.5" id="Line" stroke="#004C97" stroke-width="6" stroke-linecap="square"></path>
        </g>
    </g>
</svg>