<?xml version="1.0" encoding="UTF-8"?>
<svg width="164px" height="164px" viewBox="0 0 164 164" version="1.1" xmlns="http://www.w3.org/2000/svg" xmlns:xlink="http://www.w3.org/1999/xlink">
    <!-- Generator: sketchtool 49 (51002) - http://www.bohemiancoding.com/sketch -->
    <title>54E90DC5-4250-4ECA-9998-ECCEFCB58E11</title>
    <desc>Created with sketchtool.</desc>
    <defs></defs>
    <g id="Symbols" stroke="none" stroke-width="1" fill="none" fill-rule="evenodd">
        <g id="ic/presentation-copy-2" fill="#C4C9CD" fill-rule="nonzero">
            <g id="presentation">
                <path d="M161.986907,0 L2.01309329,0 C0.90589198,0 0,0.909848944 0,2.02188654 C0,3.13392414 0.90589198,4.04377309 2.01309329,4.04377309 L9.59574468,4.04377309 L9.59574468,103.520591 C9.59574468,107.732855 13.0180033,111.136364 17.1783961,111.136364 L147.425532,111.136364 C151.619476,111.136364 155.008183,107.699157 155.008183,103.520591 L155.008183,4.04377309 L161.986907,4.04377309 C163.094108,4.04377309 164,3.13392414 164,2.02188654 C164,0.909848944 163.094108,0 161.986907,0 Z M151.015548,103.520591 L150.981997,103.520591 C150.981997,105.508779 149.371522,107.092591 147.425532,107.092591 L17.2119476,107.092591 C15.2324059,107.092591 13.6554828,105.475081 13.6554828,103.520591 L13.6554828,4.04377309 L151.015548,4.04377309 L151.015548,103.520591 Z" id="Shape" stroke="#C4C9CD" stroke-width="2"></path>
                <path d="M109.169658,159.470742 L85.2487061,135.565016 L85.2487061,125.010538 L98.241981,125.010538 C99.341412,125.010538 100.240946,124.111576 100.240946,123.012845 C100.240946,121.914113 99.341412,121.015152 98.241981,121.015152 L67.7577591,121.015152 C66.6583282,121.015152 65.7587938,121.914113 65.7587938,123.012845 C65.7587938,124.111576 66.6583282,125.010538 67.7577591,125.010538 L81.2174593,125.010538 L81.2174593,135.598311 L57.2965071,159.570627 C56.530237,160.336409 56.530237,161.601615 57.2965071,162.400692 C57.6963001,162.800231 58.1960415,163 58.6957828,163 C59.1955242,163 59.7285816,162.800231 60.0950586,162.400692 L81.2840915,141.225146 L81.2840915,160.969012 C81.2840915,162.067743 82.1836259,162.966705 83.2830568,162.966705 C84.3824878,162.966705 85.2820222,162.067743 85.2820222,160.969012 L85.2820222,141.225146 L106.371107,162.300807 C106.7709,162.700346 107.270641,162.900115 107.770383,162.900115 C108.270124,162.900115 108.803181,162.700346 109.169658,162.300807 C109.935928,161.535025 109.935928,160.26982 109.169658,159.470742 Z" id="Shape" stroke="#C4C9CD" stroke-width="2"></path>
                <path d="M143.675693,55.3442779 L135.466639,47.497769 C134.638835,46.7330669 133.362637,46.7330669 132.534834,47.497769 C131.741522,48.2957191 131.741522,49.5258921 132.534834,50.3238421 L139.295231,56.8071863 L132.603817,63.2905305 C131.810505,64.0884805 131.810505,65.3186535 132.603817,66.1166036 C133.017719,66.5155786 133.535096,66.6818182 134.052474,66.6818182 C134.569851,66.6818182 135.12172,66.4823307 135.535622,66.0833556 L143.675693,58.170351 C144.469005,57.3724009 144.469005,56.1422279 143.675693,55.3442779 Z" id="Shape"></path>
                <path d="M25.9771713,56.7864273 L32.6749743,50.3444614 C33.4993193,49.5807232 33.4993193,48.3188948 32.6749743,47.5219506 C31.8849771,46.7250064 30.5797642,46.7250064 29.7554192,47.5219506 L21.5806648,55.3585689 C20.7563198,56.1223071 20.7563198,57.3841355 21.5806648,58.1810797 L29.7210715,66.08411 C30.133244,66.4825821 30.6484596,66.6818182 31.1980229,66.6818182 C31.7132385,66.6818182 32.2628019,66.4825821 32.6406266,66.117316 C33.4649716,65.3535778 33.4649716,64.0917494 32.6406266,63.2948052 L25.9771713,56.7864273 Z" id="Shape"></path>
                <path d="M120.074775,20.9924242 L42.6921421,20.9924242 C41.5919151,20.9924242 40.6917293,21.8965845 40.6917293,23.0016692 L40.6917293,88.1346944 C40.6917293,89.2397791 41.5919151,90.1439394 42.6921421,90.1439394 L120.074775,90.1439394 C121.175002,90.1439394 122.075188,89.2397791 122.075188,88.1346944 L122.075188,23.0016692 C122.075188,21.8965845 121.175002,20.9924242 120.074775,20.9924242 Z M118.107703,86.1254494 L44.6925548,86.1254494 L44.6925548,81.671623 C44.7592352,81.6046482 44.8259157,81.5711608 44.8925961,81.5041859 L61.0959394,65.2293015 L69.6977142,73.869055 C70.4645391,74.6392655 71.7314671,74.6392655 72.5316322,73.869055 L98.2702763,48.0167694 L118.007682,67.84132 C118.041022,67.8748074 118.074362,67.9082948 118.107703,67.9417822 L118.107703,86.1254494 Z M118.107703,62.2824088 L99.7039054,43.7973549 C98.9370805,43.0271443 97.6701524,43.0271443 96.8699873,43.7973549 L71.1313433,69.6496405 L62.4962283,60.9763996 C61.7294034,60.206189 60.4624753,60.206189 59.6623102,60.9763996 L44.6925548,76.0122496 L44.6925548,25.0109142 L118.107703,25.0109142 L118.107703,62.2824088 Z" id="Shape" stroke="#C4C9CD" stroke-width="2"></path>
                <path d="M65.9699248,34.5757576 C60.8817397,34.5757576 56.7218045,38.7416498 56.7218045,43.8371212 C56.7218045,48.9325927 60.8817397,53.0984848 65.9699248,53.0984848 C71.05811,53.0984848 75.2180451,48.9325927 75.2180451,43.8371212 C75.2180451,38.7416498 71.05811,34.5757576 65.9699248,34.5757576 Z M65.9699248,48.9670215 C63.1507952,48.9670215 60.84736,46.6947167 60.84736,43.8371212 C60.84736,41.0139546 63.1507952,38.7072209 65.9699248,38.7072209 C68.7890544,38.7072209 71.0924896,41.0139546 71.0924896,43.8371212 C71.0924896,46.6602878 68.7890544,48.9670215 65.9699248,48.9670215 Z" id="Shape"></path>
            </g>
        </g>
    </g>
</svg>