<?xml version="1.0" encoding="UTF-8"?>
<svg width="115px" height="110px" viewBox="0 0 115 110" version="1.1" xmlns="http://www.w3.org/2000/svg" xmlns:xlink="http://www.w3.org/1999/xlink">
    <!-- Generator: sketchtool 49 (51002) - http://www.bohemiancoding.com/sketch -->
    <title>7BF4CC5B-B522-47C0-92E6-2AC3CAB50B99</title>
    <desc>Created with sketchtool.</desc>
    <defs></defs>
    <g id="Участник" stroke="none" stroke-width="1" fill="none" fill-rule="evenodd">
        <g id="Desktop-1366_участник" transform="translate(-1072.000000, -389.000000)" fill="#C4C9CD">
            <g id="Group-6" transform="translate(1009.000000, 333.000000)">
                <g id="ic/walk-of-fame" transform="translate(63.000000, 56.000000)">
                    <g id="walk-of-fame">
                        <path d="M114.90327,41.8719292 C114.671473,41.1552831 114.054244,40.63302 113.311683,40.5247789 L75.9682268,35.0768707 L59.2680141,1.10360788 C58.9358157,0.428003218 58.2503056,0 57.4996585,0 C56.7490115,0 56.0637259,0.427777716 55.7313029,1.10360788 L39.0308657,35.0768707 L1.6880833,40.5247789 C0.945297586,40.63302 0.328293549,41.1552831 0.0964958907,41.8719292 C-0.135301767,42.5885752 0.0580875578,43.3753525 0.595130387,43.9012237 L27.6170771,70.3456438 L21.2379247,107.685655 C21.1112446,108.428459 21.4151421,109.179156 22.0224879,109.621817 C22.3661414,109.872575 22.7729104,109.999984 23.1817008,109.999984 C23.4952566,109.999984 23.8106092,109.924666 24.0990086,109.772678 L57.4998831,92.1429141 L90.9007577,109.772678 C91.5651545,110.123108 92.3703818,110.064929 92.9772784,109.622042 C93.5846242,109.179156 93.8885217,108.428685 93.7618416,107.68588 L87.3826892,70.3456438 L114.404636,43.9012237 C114.941903,43.3753525 115.135517,42.5885752 114.90327,41.8719292 Z M83.8875309,68.237198 C83.4228125,68.692036 83.2107805,69.3473455 83.3203903,69.9895758 L89.1993359,104.402117 L58.4171909,88.1546818 C57.8424136,87.8516068 57.1564542,87.8516068 56.5821261,88.1546818 L25.8002058,104.401891 L31.6789268,69.9893503 C31.7885365,69.34712 31.5767292,68.6918105 31.1117862,68.2369725 L6.20881146,43.8658198 L40.62425,38.8450128 C41.2664103,38.7512039 41.8218712,38.3464274 42.108923,37.7619257 L57.4998831,6.45252059 L72.8908433,37.7619257 C73.1778951,38.3459764 73.7331313,38.7512039 74.3755163,38.8450128 L108.790955,43.8658198 L83.8875309,68.237198 Z" id="Shape" fill-rule="nonzero"></path>
                        <path d="M57.1495027,39.4871795 C45.3564509,39.4871795 35.7621951,49.1349149 35.7621951,60.9937029 C35.7621951,72.8524908 45.3564509,82.5 57.1495027,82.5 C68.9425546,82.5 78.5365854,72.8522646 78.5365854,60.9937029 C78.5365854,49.1351411 68.9421046,39.4871795 57.1495027,39.4871795 Z M57.1495027,78.5282946 C47.5343253,78.5282946 39.7118844,70.6622503 39.7118844,60.9937029 C39.7118844,51.3251554 47.5343253,43.4588849 57.1495027,43.4588849 C66.7646801,43.4588849 74.5866711,51.3249292 74.5866711,60.9937029 C74.5866711,70.6624765 66.7642302,78.5282946 57.1495027,78.5282946 Z" id="Shape" fill-rule="nonzero"></path>
                        <path d="M66.0245002,52.1794872 L49.6767193,52.1794872 C48.5756934,52.1794872 47.6829268,53.1266995 47.6829268,54.2948718 C47.6829268,55.4630441 48.5754663,56.4102564 49.6767193,56.4102564 L66.0245002,56.4102564 C67.1255261,56.4102564 68.0182927,55.4630441 68.0182927,54.2948718 C68.0182927,53.1264585 67.1255261,52.1794872 66.0245002,52.1794872 Z" id="Shape" fill-rule="nonzero"></path>
                        <path d="M68.8500919,58.525641 L46.1499081,58.525641 C45.0603209,58.525641 44.1768293,59.4728533 44.1768293,60.6410256 C44.1768293,61.8091979 45.0603209,62.7564103 46.1499081,62.7564103 L68.8500919,62.7564103 C69.9396791,62.7564103 70.8231707,61.8091979 70.8231707,60.6410256 C70.822946,59.4728533 69.9396791,58.525641 68.8500919,58.525641 Z" id="Shape" fill-rule="nonzero"></path>
                        <path d="M66.0245002,64.8717949 L49.6767193,64.8717949 C48.5756934,64.8717949 47.6829268,65.8190072 47.6829268,66.9871795 C47.6829268,68.1553518 48.5754663,69.1025641 49.6767193,69.1025641 L66.0245002,69.1025641 C67.1255261,69.1025641 68.0182927,68.1553518 68.0182927,66.9871795 C68.0182927,65.8190072 67.1255261,64.8717949 66.0245002,64.8717949 Z" id="Shape" fill-rule="nonzero"></path>
                    </g>
                </g>
            </g>
        </g>
    </g>
</svg>